<svg xmlns="http://www.w3.org/2000/svg" width="1920" height="1080" viewBox="0 0 1920 1080">
  <defs>
    <linearGradient id="grad1" x1="0%" y1="0%" x2="100%" y2="100%">
      <stop offset="0%" style="stop-color:#5a9e97;stop-opacity:1" />
      <stop offset="100%" style="stop-color:#498b84;stop-opacity:1" />
    </linearGradient>
  </defs>
  <rect width="1920" height="1080" fill="url(#grad1)" />
  <path fill="#ffffff" fill-opacity="0.05" d="M0,320L48,298.7C96,277,192,235,288,224C384,213,480,235,576,240C672,245,768,235,864,245.3C960,256,1056,288,1152,282.7C1248,277,1344,235,1392,213.3L1440,192L1440,0L1392,0C1344,0,1248,0,1152,0C1056,0,960,0,864,0C768,0,672,0,576,0C480,0,384,0,288,0C192,0,96,0,48,0L0,0Z"></path>
  <path fill="#ffffff" fill-opacity="0.05" d="M0,640L48,629.3C96,619,192,597,288,608C384,619,480,661,576,650.7C672,640,768,576,864,565.3C960,555,1056,597,1152,608C1248,619,1344,597,1392,586.7L1440,576L1440,0L1392,0C1344,0,1248,0,1152,0C1056,0,960,0,864,0C768,0,672,0,576,0C480,0,384,0,288,0C192,0,96,0,48,0L0,0Z"></path>
</svg>